
<svg xmlns="http://www.w3.org/2000/svg" viewBox="0 0 500 400">
  <style>
    .primary { fill: #37124f; }
    .secondary { fill: #ff6600; }
    .accent { fill: #eeeeee; }
  </style>
  <g>
    <rect class="accent" x="50" y="50" width="180" height="150" rx="10" />
    <rect class="primary" x="70" y="70" width="140" height="20" rx="5" />
    <rect class="secondary" x="70" y="100" width="140" height="10" rx="5" />
    <rect class="secondary" x="70" y="120" width="140" height="10" rx="5" />
    <rect class="primary" x="70" y="160" width="50" height="20" rx="5" />
    
    <rect class="accent" x="260" y="50" width="180" height="150" rx="10" />
    <rect class="primary" x="280" y="70" width="140" height="20" rx="5" />
    <rect class="secondary" x="280" y="100" width="140" height="10" rx="5" />
    <rect class="secondary" x="280" y="120" width="140" height="10" rx="5" />
    <rect class="primary" x="280" y="160" width="50" height="20" rx="5" />
    
    <rect class="accent" x="50" y="220" width="180" height="150" rx="10" />
    <rect class="primary" x="70" y="240" width="140" height="20" rx="5" />
    <rect class="secondary" x="70" y="270" width="140" height="10" rx="5" />
    <rect class="secondary" x="70" y="290" width="140" height="10" rx="5" />
    <rect class="primary" x="70" y="330" width="50" height="20" rx="5" />
    
    <rect class="accent" x="260" y="220" width="180" height="150" rx="10" />
    <rect class="primary" x="280" y="240" width="140" height="20" rx="5" />
    <rect class="secondary" x="280" y="270" width="140" height="10" rx="5" />
    <rect class="secondary" x="280" y="290" width="140" height="10" rx="5" />
    <rect class="primary" x="280" y="330" width="50" height="20" rx="5" />
  </g>
</svg>
